{
	"patcher" : 	{
		"fileversion" : 1,
		"appversion" : 		{
			"major" : 5,
			"minor" : 1,
			"revision" : 9
		}
,
		"rect" : [ 71.0, 614.0, 1345.0, 240.0 ],
		"bglocked" : 0,
		"defrect" : [ 71.0, 614.0, 1345.0, 240.0 ],
		"openrect" : [ 0.0, 0.0, 0.0, 0.0 ],
		"openinpresentation" : 0,
		"default_fontsize" : 12.0,
		"default_fontface" : 0,
		"default_fontname" : "Arial",
		"gridonopen" : 0,
		"gridsize" : [ 15.0, 15.0 ],
		"gridsnaponopen" : 0,
		"toolbarvisible" : 1,
		"boxanimatetime" : 200,
		"imprint" : 0,
		"enablehscroll" : 1,
		"enablevscroll" : 1,
		"devicewidth" : 0.0,
		"boxes" : [ 			{
				"box" : 				{
					"maxclass" : "inlet",
					"outlettype" : [ "" ],
					"id" : "obj-11",
					"patching_rect" : [ 1155.0, 60.0, 25.0, 25.0 ],
					"numinlets" : 0,
					"numoutlets" : 1,
					"comment" : "(signal) Amplitude of partial #16"
				}

			}
, 			{
				"box" : 				{
					"maxclass" : "inlet",
					"outlettype" : [ "" ],
					"id" : "obj-12",
					"patching_rect" : [ 1080.0, 60.0, 25.0, 25.0 ],
					"numinlets" : 0,
					"numoutlets" : 1,
					"comment" : "(signal) Amplitude of partial #15"
				}

			}
, 			{
				"box" : 				{
					"maxclass" : "inlet",
					"outlettype" : [ "" ],
					"id" : "obj-13",
					"patching_rect" : [ 1005.0, 60.0, 25.0, 25.0 ],
					"numinlets" : 0,
					"numoutlets" : 1,
					"comment" : "(signal) Amplitude of partial #14"
				}

			}
, 			{
				"box" : 				{
					"maxclass" : "inlet",
					"outlettype" : [ "" ],
					"id" : "obj-14",
					"patching_rect" : [ 930.0, 60.0, 25.0, 25.0 ],
					"numinlets" : 0,
					"numoutlets" : 1,
					"comment" : "(signal) Amplitude of partial #13"
				}

			}
, 			{
				"box" : 				{
					"maxclass" : "inlet",
					"outlettype" : [ "" ],
					"id" : "obj-15",
					"patching_rect" : [ 855.0, 60.0, 25.0, 25.0 ],
					"numinlets" : 0,
					"numoutlets" : 1,
					"comment" : "(signal) Amplitude of partial #12"
				}

			}
, 			{
				"box" : 				{
					"maxclass" : "inlet",
					"outlettype" : [ "" ],
					"id" : "obj-16",
					"patching_rect" : [ 780.0, 60.0, 25.0, 25.0 ],
					"numinlets" : 0,
					"numoutlets" : 1,
					"comment" : "(signal) Amplitude of partial #11"
				}

			}
, 			{
				"box" : 				{
					"maxclass" : "inlet",
					"outlettype" : [ "" ],
					"id" : "obj-17",
					"patching_rect" : [ 705.0, 60.0, 25.0, 25.0 ],
					"numinlets" : 0,
					"numoutlets" : 1,
					"comment" : "(signal) Amplitude of partial #10"
				}

			}
, 			{
				"box" : 				{
					"maxclass" : "inlet",
					"outlettype" : [ "" ],
					"id" : "obj-18",
					"patching_rect" : [ 630.0, 60.0, 25.0, 25.0 ],
					"numinlets" : 0,
					"numoutlets" : 1,
					"comment" : "(signal) Amplitude of partial #9"
				}

			}
, 			{
				"box" : 				{
					"maxclass" : "inlet",
					"outlettype" : [ "" ],
					"id" : "obj-7",
					"patching_rect" : [ 555.0, 60.0, 25.0, 25.0 ],
					"numinlets" : 0,
					"numoutlets" : 1,
					"comment" : "(signal) Amplitude of partial #8"
				}

			}
, 			{
				"box" : 				{
					"maxclass" : "inlet",
					"outlettype" : [ "" ],
					"id" : "obj-8",
					"patching_rect" : [ 480.0, 60.0, 25.0, 25.0 ],
					"numinlets" : 0,
					"numoutlets" : 1,
					"comment" : "(signal) Amplitude of partial #7"
				}

			}
, 			{
				"box" : 				{
					"maxclass" : "inlet",
					"outlettype" : [ "" ],
					"id" : "obj-9",
					"patching_rect" : [ 405.0, 60.0, 25.0, 25.0 ],
					"numinlets" : 0,
					"numoutlets" : 1,
					"comment" : "(signal) Amplitude of partial #6"
				}

			}
, 			{
				"box" : 				{
					"maxclass" : "inlet",
					"outlettype" : [ "" ],
					"id" : "obj-10",
					"patching_rect" : [ 330.0, 60.0, 25.0, 25.0 ],
					"numinlets" : 0,
					"numoutlets" : 1,
					"comment" : "(signal) Amplitude of partial #5"
				}

			}
, 			{
				"box" : 				{
					"maxclass" : "inlet",
					"outlettype" : [ "" ],
					"id" : "obj-4",
					"patching_rect" : [ 255.0, 60.0, 25.0, 25.0 ],
					"numinlets" : 0,
					"numoutlets" : 1,
					"comment" : "(signal) Amplitude of partial #4"
				}

			}
, 			{
				"box" : 				{
					"maxclass" : "inlet",
					"outlettype" : [ "" ],
					"id" : "obj-6",
					"patching_rect" : [ 180.0, 60.0, 25.0, 25.0 ],
					"numinlets" : 0,
					"numoutlets" : 1,
					"comment" : "(signal) Amplitude of partial #3"
				}

			}
, 			{
				"box" : 				{
					"maxclass" : "inlet",
					"outlettype" : [ "" ],
					"id" : "obj-2",
					"patching_rect" : [ 105.0, 60.0, 25.0, 25.0 ],
					"numinlets" : 0,
					"numoutlets" : 1,
					"comment" : "(signal) Amplitude of partial #2"
				}

			}
, 			{
				"box" : 				{
					"maxclass" : "inlet",
					"outlettype" : [ "" ],
					"id" : "obj-1",
					"patching_rect" : [ 30.0, 60.0, 25.0, 25.0 ],
					"numinlets" : 0,
					"numoutlets" : 1,
					"comment" : "(signal) Amplitude of partial #1"
				}

			}
, 			{
				"box" : 				{
					"maxclass" : "newobj",
					"text" : "fnd.tone 16.",
					"outlettype" : [ "signal" ],
					"id" : "obj-47",
					"fontname" : "Arial",
					"patching_rect" : [ 1155.0, 135.0, 74.0, 20.0 ],
					"numinlets" : 2,
					"fontsize" : 12.0,
					"numoutlets" : 1
				}

			}
, 			{
				"box" : 				{
					"maxclass" : "outlet",
					"id" : "obj-48",
					"patching_rect" : [ 1155.0, 180.0, 30.0, 30.0 ],
					"numinlets" : 1,
					"numoutlets" : 0,
					"comment" : "(signal) partial output"
				}

			}
, 			{
				"box" : 				{
					"maxclass" : "newobj",
					"text" : "fnd.tone 15.",
					"outlettype" : [ "signal" ],
					"id" : "obj-49",
					"fontname" : "Arial",
					"patching_rect" : [ 1080.0, 135.0, 74.0, 20.0 ],
					"numinlets" : 2,
					"fontsize" : 12.0,
					"numoutlets" : 1
				}

			}
, 			{
				"box" : 				{
					"maxclass" : "outlet",
					"id" : "obj-50",
					"patching_rect" : [ 1080.0, 180.0, 30.0, 30.0 ],
					"numinlets" : 1,
					"numoutlets" : 0,
					"comment" : "(signal) partial output"
				}

			}
, 			{
				"box" : 				{
					"maxclass" : "newobj",
					"text" : "fnd.tone 14.",
					"outlettype" : [ "signal" ],
					"id" : "obj-51",
					"fontname" : "Arial",
					"patching_rect" : [ 1005.0, 135.0, 74.0, 20.0 ],
					"numinlets" : 2,
					"fontsize" : 12.0,
					"numoutlets" : 1
				}

			}
, 			{
				"box" : 				{
					"maxclass" : "outlet",
					"id" : "obj-52",
					"patching_rect" : [ 1005.0, 180.0, 30.0, 30.0 ],
					"numinlets" : 1,
					"numoutlets" : 0,
					"comment" : "(signal) partial output"
				}

			}
, 			{
				"box" : 				{
					"maxclass" : "newobj",
					"text" : "fnd.tone 13.",
					"outlettype" : [ "signal" ],
					"id" : "obj-53",
					"fontname" : "Arial",
					"patching_rect" : [ 930.0, 135.0, 74.0, 20.0 ],
					"numinlets" : 2,
					"fontsize" : 12.0,
					"numoutlets" : 1
				}

			}
, 			{
				"box" : 				{
					"maxclass" : "outlet",
					"id" : "obj-54",
					"patching_rect" : [ 930.0, 180.0, 30.0, 30.0 ],
					"numinlets" : 1,
					"numoutlets" : 0,
					"comment" : "(signal) partial output"
				}

			}
, 			{
				"box" : 				{
					"maxclass" : "newobj",
					"text" : "fnd.tone 12.",
					"outlettype" : [ "signal" ],
					"id" : "obj-35",
					"fontname" : "Arial",
					"patching_rect" : [ 855.0, 135.0, 74.0, 20.0 ],
					"numinlets" : 2,
					"fontsize" : 12.0,
					"numoutlets" : 1
				}

			}
, 			{
				"box" : 				{
					"maxclass" : "outlet",
					"id" : "obj-36",
					"patching_rect" : [ 855.0, 180.0, 30.0, 30.0 ],
					"numinlets" : 1,
					"numoutlets" : 0,
					"comment" : "(signal) partial output"
				}

			}
, 			{
				"box" : 				{
					"maxclass" : "newobj",
					"text" : "fnd.tone 11.",
					"outlettype" : [ "signal" ],
					"id" : "obj-37",
					"fontname" : "Arial",
					"patching_rect" : [ 780.0, 135.0, 73.0, 20.0 ],
					"numinlets" : 2,
					"fontsize" : 12.0,
					"numoutlets" : 1
				}

			}
, 			{
				"box" : 				{
					"maxclass" : "outlet",
					"id" : "obj-38",
					"patching_rect" : [ 780.0, 180.0, 30.0, 30.0 ],
					"numinlets" : 1,
					"numoutlets" : 0,
					"comment" : "(signal) partial output"
				}

			}
, 			{
				"box" : 				{
					"maxclass" : "newobj",
					"text" : "fnd.tone 10.",
					"outlettype" : [ "signal" ],
					"id" : "obj-39",
					"fontname" : "Arial",
					"patching_rect" : [ 705.0, 135.0, 74.0, 20.0 ],
					"numinlets" : 2,
					"fontsize" : 12.0,
					"numoutlets" : 1
				}

			}
, 			{
				"box" : 				{
					"maxclass" : "outlet",
					"id" : "obj-40",
					"patching_rect" : [ 705.0, 180.0, 30.0, 30.0 ],
					"numinlets" : 1,
					"numoutlets" : 0,
					"comment" : "(signal) partial output"
				}

			}
, 			{
				"box" : 				{
					"maxclass" : "newobj",
					"text" : "fnd.tone 9.",
					"outlettype" : [ "signal" ],
					"id" : "obj-41",
					"fontname" : "Arial",
					"patching_rect" : [ 630.0, 135.0, 67.0, 20.0 ],
					"numinlets" : 2,
					"fontsize" : 12.0,
					"numoutlets" : 1
				}

			}
, 			{
				"box" : 				{
					"maxclass" : "outlet",
					"id" : "obj-42",
					"patching_rect" : [ 630.0, 180.0, 30.0, 30.0 ],
					"numinlets" : 1,
					"numoutlets" : 0,
					"comment" : "(signal) partial output"
				}

			}
, 			{
				"box" : 				{
					"maxclass" : "newobj",
					"text" : "fnd.tone 8.",
					"outlettype" : [ "signal" ],
					"id" : "obj-43",
					"fontname" : "Arial",
					"patching_rect" : [ 555.0, 135.0, 67.0, 20.0 ],
					"numinlets" : 2,
					"fontsize" : 12.0,
					"numoutlets" : 1
				}

			}
, 			{
				"box" : 				{
					"maxclass" : "outlet",
					"id" : "obj-44",
					"patching_rect" : [ 555.0, 180.0, 30.0, 30.0 ],
					"numinlets" : 1,
					"numoutlets" : 0,
					"comment" : "(signal) partial output"
				}

			}
, 			{
				"box" : 				{
					"maxclass" : "newobj",
					"text" : "fnd.tone 7.",
					"outlettype" : [ "signal" ],
					"id" : "obj-45",
					"fontname" : "Arial",
					"patching_rect" : [ 480.0, 135.0, 67.0, 20.0 ],
					"numinlets" : 2,
					"fontsize" : 12.0,
					"numoutlets" : 1
				}

			}
, 			{
				"box" : 				{
					"maxclass" : "outlet",
					"id" : "obj-46",
					"patching_rect" : [ 480.0, 180.0, 30.0, 30.0 ],
					"numinlets" : 1,
					"numoutlets" : 0,
					"comment" : "(signal) partial output"
				}

			}
, 			{
				"box" : 				{
					"maxclass" : "newobj",
					"text" : "fnd.tone 6.",
					"outlettype" : [ "signal" ],
					"id" : "obj-33",
					"fontname" : "Arial",
					"patching_rect" : [ 405.0, 135.0, 67.0, 20.0 ],
					"numinlets" : 2,
					"fontsize" : 12.0,
					"numoutlets" : 1
				}

			}
, 			{
				"box" : 				{
					"maxclass" : "outlet",
					"id" : "obj-34",
					"patching_rect" : [ 405.0, 180.0, 30.0, 30.0 ],
					"numinlets" : 1,
					"numoutlets" : 0,
					"comment" : "(signal) partial output"
				}

			}
, 			{
				"box" : 				{
					"maxclass" : "newobj",
					"text" : "fnd.tone 5.",
					"outlettype" : [ "signal" ],
					"id" : "obj-31",
					"fontname" : "Arial",
					"patching_rect" : [ 330.0, 135.0, 67.0, 20.0 ],
					"numinlets" : 2,
					"fontsize" : 12.0,
					"numoutlets" : 1
				}

			}
, 			{
				"box" : 				{
					"maxclass" : "outlet",
					"id" : "obj-32",
					"patching_rect" : [ 330.0, 180.0, 30.0, 30.0 ],
					"numinlets" : 1,
					"numoutlets" : 0,
					"comment" : "(signal) partial output"
				}

			}
, 			{
				"box" : 				{
					"maxclass" : "newobj",
					"text" : "fnd.tone 4.",
					"outlettype" : [ "signal" ],
					"id" : "obj-29",
					"fontname" : "Arial",
					"patching_rect" : [ 255.0, 135.0, 67.0, 20.0 ],
					"numinlets" : 2,
					"fontsize" : 12.0,
					"numoutlets" : 1
				}

			}
, 			{
				"box" : 				{
					"maxclass" : "outlet",
					"id" : "obj-30",
					"patching_rect" : [ 255.0, 180.0, 30.0, 30.0 ],
					"numinlets" : 1,
					"numoutlets" : 0,
					"comment" : "(signal) partial output"
				}

			}
, 			{
				"box" : 				{
					"maxclass" : "newobj",
					"text" : "fnd.tone 3.",
					"outlettype" : [ "signal" ],
					"id" : "obj-27",
					"fontname" : "Arial",
					"patching_rect" : [ 180.0, 135.0, 67.0, 20.0 ],
					"numinlets" : 2,
					"fontsize" : 12.0,
					"numoutlets" : 1
				}

			}
, 			{
				"box" : 				{
					"maxclass" : "outlet",
					"id" : "obj-28",
					"patching_rect" : [ 180.0, 180.0, 30.0, 30.0 ],
					"numinlets" : 1,
					"numoutlets" : 0,
					"comment" : "(signal) partial output"
				}

			}
, 			{
				"box" : 				{
					"maxclass" : "newobj",
					"text" : "fnd.tone 2.",
					"outlettype" : [ "signal" ],
					"id" : "obj-25",
					"fontname" : "Arial",
					"patching_rect" : [ 105.0, 135.0, 67.0, 20.0 ],
					"numinlets" : 2,
					"fontsize" : 12.0,
					"numoutlets" : 1
				}

			}
, 			{
				"box" : 				{
					"maxclass" : "outlet",
					"id" : "obj-26",
					"patching_rect" : [ 105.0, 180.0, 30.0, 30.0 ],
					"numinlets" : 1,
					"numoutlets" : 0,
					"comment" : "(signal) partial output"
				}

			}
, 			{
				"box" : 				{
					"maxclass" : "newobj",
					"text" : "fnd.tone 1.",
					"outlettype" : [ "signal" ],
					"id" : "obj-19",
					"fontname" : "Arial",
					"patching_rect" : [ 30.0, 135.0, 67.0, 20.0 ],
					"numinlets" : 2,
					"fontsize" : 12.0,
					"numoutlets" : 1
				}

			}
, 			{
				"box" : 				{
					"maxclass" : "inlet",
					"outlettype" : [ "" ],
					"id" : "obj-5",
					"patching_rect" : [ 1275.0, 30.0, 30.0, 30.0 ],
					"numinlets" : 0,
					"numoutlets" : 1,
					"comment" : "(float) fundamental frequency"
				}

			}
, 			{
				"box" : 				{
					"maxclass" : "outlet",
					"id" : "obj-3",
					"patching_rect" : [ 30.0, 180.0, 30.0, 30.0 ],
					"numinlets" : 1,
					"numoutlets" : 0,
					"comment" : "(signal) partial output"
				}

			}
 ],
		"lines" : [ 			{
				"patchline" : 				{
					"source" : [ "obj-5", 0 ],
					"destination" : [ "obj-19", 1 ],
					"hidden" : 0,
					"midpoints" : [ 1284.5, 112.0, 87.5, 112.0 ]
				}

			}
, 			{
				"patchline" : 				{
					"source" : [ "obj-19", 0 ],
					"destination" : [ "obj-3", 0 ],
					"hidden" : 0,
					"midpoints" : [  ]
				}

			}
, 			{
				"patchline" : 				{
					"source" : [ "obj-1", 0 ],
					"destination" : [ "obj-19", 0 ],
					"hidden" : 0,
					"midpoints" : [  ]
				}

			}
, 			{
				"patchline" : 				{
					"source" : [ "obj-25", 0 ],
					"destination" : [ "obj-26", 0 ],
					"hidden" : 0,
					"midpoints" : [  ]
				}

			}
, 			{
				"patchline" : 				{
					"source" : [ "obj-5", 0 ],
					"destination" : [ "obj-25", 1 ],
					"hidden" : 0,
					"midpoints" : [ 1284.5, 112.0, 162.5, 112.0 ]
				}

			}
, 			{
				"patchline" : 				{
					"source" : [ "obj-2", 0 ],
					"destination" : [ "obj-25", 0 ],
					"hidden" : 0,
					"midpoints" : [  ]
				}

			}
, 			{
				"patchline" : 				{
					"source" : [ "obj-27", 0 ],
					"destination" : [ "obj-28", 0 ],
					"hidden" : 0,
					"midpoints" : [  ]
				}

			}
, 			{
				"patchline" : 				{
					"source" : [ "obj-5", 0 ],
					"destination" : [ "obj-27", 1 ],
					"hidden" : 0,
					"midpoints" : [ 1284.5, 112.0, 237.5, 112.0 ]
				}

			}
, 			{
				"patchline" : 				{
					"source" : [ "obj-6", 0 ],
					"destination" : [ "obj-27", 0 ],
					"hidden" : 0,
					"midpoints" : [  ]
				}

			}
, 			{
				"patchline" : 				{
					"source" : [ "obj-29", 0 ],
					"destination" : [ "obj-30", 0 ],
					"hidden" : 0,
					"midpoints" : [  ]
				}

			}
, 			{
				"patchline" : 				{
					"source" : [ "obj-5", 0 ],
					"destination" : [ "obj-29", 1 ],
					"hidden" : 0,
					"midpoints" : [ 1284.5, 112.0, 312.5, 112.0 ]
				}

			}
, 			{
				"patchline" : 				{
					"source" : [ "obj-4", 0 ],
					"destination" : [ "obj-29", 0 ],
					"hidden" : 0,
					"midpoints" : [  ]
				}

			}
, 			{
				"patchline" : 				{
					"source" : [ "obj-31", 0 ],
					"destination" : [ "obj-32", 0 ],
					"hidden" : 0,
					"midpoints" : [  ]
				}

			}
, 			{
				"patchline" : 				{
					"source" : [ "obj-5", 0 ],
					"destination" : [ "obj-31", 1 ],
					"hidden" : 0,
					"midpoints" : [ 1284.5, 112.0, 387.5, 112.0 ]
				}

			}
, 			{
				"patchline" : 				{
					"source" : [ "obj-10", 0 ],
					"destination" : [ "obj-31", 0 ],
					"hidden" : 0,
					"midpoints" : [  ]
				}

			}
, 			{
				"patchline" : 				{
					"source" : [ "obj-33", 0 ],
					"destination" : [ "obj-34", 0 ],
					"hidden" : 0,
					"midpoints" : [  ]
				}

			}
, 			{
				"patchline" : 				{
					"source" : [ "obj-5", 0 ],
					"destination" : [ "obj-33", 1 ],
					"hidden" : 0,
					"midpoints" : [ 1284.5, 112.0, 462.5, 112.0 ]
				}

			}
, 			{
				"patchline" : 				{
					"source" : [ "obj-9", 0 ],
					"destination" : [ "obj-33", 0 ],
					"hidden" : 0,
					"midpoints" : [  ]
				}

			}
, 			{
				"patchline" : 				{
					"source" : [ "obj-45", 0 ],
					"destination" : [ "obj-46", 0 ],
					"hidden" : 0,
					"midpoints" : [  ]
				}

			}
, 			{
				"patchline" : 				{
					"source" : [ "obj-5", 0 ],
					"destination" : [ "obj-45", 1 ],
					"hidden" : 0,
					"midpoints" : [ 1284.5, 112.0, 537.5, 112.0 ]
				}

			}
, 			{
				"patchline" : 				{
					"source" : [ "obj-8", 0 ],
					"destination" : [ "obj-45", 0 ],
					"hidden" : 0,
					"midpoints" : [  ]
				}

			}
, 			{
				"patchline" : 				{
					"source" : [ "obj-43", 0 ],
					"destination" : [ "obj-44", 0 ],
					"hidden" : 0,
					"midpoints" : [  ]
				}

			}
, 			{
				"patchline" : 				{
					"source" : [ "obj-5", 0 ],
					"destination" : [ "obj-43", 1 ],
					"hidden" : 0,
					"midpoints" : [ 1284.5, 112.0, 612.5, 112.0 ]
				}

			}
, 			{
				"patchline" : 				{
					"source" : [ "obj-7", 0 ],
					"destination" : [ "obj-43", 0 ],
					"hidden" : 0,
					"midpoints" : [  ]
				}

			}
, 			{
				"patchline" : 				{
					"source" : [ "obj-41", 0 ],
					"destination" : [ "obj-42", 0 ],
					"hidden" : 0,
					"midpoints" : [  ]
				}

			}
, 			{
				"patchline" : 				{
					"source" : [ "obj-5", 0 ],
					"destination" : [ "obj-41", 1 ],
					"hidden" : 0,
					"midpoints" : [ 1284.5, 112.0, 687.5, 112.0 ]
				}

			}
, 			{
				"patchline" : 				{
					"source" : [ "obj-18", 0 ],
					"destination" : [ "obj-41", 0 ],
					"hidden" : 0,
					"midpoints" : [  ]
				}

			}
, 			{
				"patchline" : 				{
					"source" : [ "obj-39", 0 ],
					"destination" : [ "obj-40", 0 ],
					"hidden" : 0,
					"midpoints" : [  ]
				}

			}
, 			{
				"patchline" : 				{
					"source" : [ "obj-5", 0 ],
					"destination" : [ "obj-39", 1 ],
					"hidden" : 0,
					"midpoints" : [ 1284.5, 112.0, 769.5, 112.0 ]
				}

			}
, 			{
				"patchline" : 				{
					"source" : [ "obj-17", 0 ],
					"destination" : [ "obj-39", 0 ],
					"hidden" : 0,
					"midpoints" : [  ]
				}

			}
, 			{
				"patchline" : 				{
					"source" : [ "obj-37", 0 ],
					"destination" : [ "obj-38", 0 ],
					"hidden" : 0,
					"midpoints" : [  ]
				}

			}
, 			{
				"patchline" : 				{
					"source" : [ "obj-5", 0 ],
					"destination" : [ "obj-37", 1 ],
					"hidden" : 0,
					"midpoints" : [ 1284.5, 112.0, 843.5, 112.0 ]
				}

			}
, 			{
				"patchline" : 				{
					"source" : [ "obj-16", 0 ],
					"destination" : [ "obj-37", 0 ],
					"hidden" : 0,
					"midpoints" : [  ]
				}

			}
, 			{
				"patchline" : 				{
					"source" : [ "obj-35", 0 ],
					"destination" : [ "obj-36", 0 ],
					"hidden" : 0,
					"midpoints" : [  ]
				}

			}
, 			{
				"patchline" : 				{
					"source" : [ "obj-5", 0 ],
					"destination" : [ "obj-35", 1 ],
					"hidden" : 0,
					"midpoints" : [ 1284.5, 112.0, 919.5, 112.0 ]
				}

			}
, 			{
				"patchline" : 				{
					"source" : [ "obj-15", 0 ],
					"destination" : [ "obj-35", 0 ],
					"hidden" : 0,
					"midpoints" : [  ]
				}

			}
, 			{
				"patchline" : 				{
					"source" : [ "obj-53", 0 ],
					"destination" : [ "obj-54", 0 ],
					"hidden" : 0,
					"midpoints" : [  ]
				}

			}
, 			{
				"patchline" : 				{
					"source" : [ "obj-5", 0 ],
					"destination" : [ "obj-53", 1 ],
					"hidden" : 0,
					"midpoints" : [ 1284.5, 112.0, 994.5, 112.0 ]
				}

			}
, 			{
				"patchline" : 				{
					"source" : [ "obj-14", 0 ],
					"destination" : [ "obj-53", 0 ],
					"hidden" : 0,
					"midpoints" : [  ]
				}

			}
, 			{
				"patchline" : 				{
					"source" : [ "obj-51", 0 ],
					"destination" : [ "obj-52", 0 ],
					"hidden" : 0,
					"midpoints" : [  ]
				}

			}
, 			{
				"patchline" : 				{
					"source" : [ "obj-5", 0 ],
					"destination" : [ "obj-51", 1 ],
					"hidden" : 0,
					"midpoints" : [ 1284.5, 112.0, 1069.5, 112.0 ]
				}

			}
, 			{
				"patchline" : 				{
					"source" : [ "obj-13", 0 ],
					"destination" : [ "obj-51", 0 ],
					"hidden" : 0,
					"midpoints" : [  ]
				}

			}
, 			{
				"patchline" : 				{
					"source" : [ "obj-49", 0 ],
					"destination" : [ "obj-50", 0 ],
					"hidden" : 0,
					"midpoints" : [  ]
				}

			}
, 			{
				"patchline" : 				{
					"source" : [ "obj-5", 0 ],
					"destination" : [ "obj-49", 1 ],
					"hidden" : 0,
					"midpoints" : [ 1284.5, 112.0, 1144.5, 112.0 ]
				}

			}
, 			{
				"patchline" : 				{
					"source" : [ "obj-12", 0 ],
					"destination" : [ "obj-49", 0 ],
					"hidden" : 0,
					"midpoints" : [  ]
				}

			}
, 			{
				"patchline" : 				{
					"source" : [ "obj-47", 0 ],
					"destination" : [ "obj-48", 0 ],
					"hidden" : 0,
					"midpoints" : [  ]
				}

			}
, 			{
				"patchline" : 				{
					"source" : [ "obj-5", 0 ],
					"destination" : [ "obj-47", 1 ],
					"hidden" : 0,
					"midpoints" : [ 1284.5, 112.0, 1219.5, 112.0 ]
				}

			}
, 			{
				"patchline" : 				{
					"source" : [ "obj-11", 0 ],
					"destination" : [ "obj-47", 0 ],
					"hidden" : 0,
					"midpoints" : [  ]
				}

			}
 ]
	}

}
