{
	"patcher" : 	{
		"fileversion" : 1,
		"appversion" : 		{
			"major" : 5,
			"minor" : 1,
			"revision" : 9
		}
,
		"rect" : [ 80.0, 69.0, 640.0, 480.0 ],
		"bglocked" : 0,
		"defrect" : [ 80.0, 69.0, 640.0, 480.0 ],
		"openrect" : [ 0.0, 0.0, 0.0, 0.0 ],
		"openinpresentation" : 0,
		"default_fontsize" : 12.0,
		"default_fontface" : 0,
		"default_fontname" : "Arial",
		"gridonopen" : 0,
		"gridsize" : [ 15.0, 15.0 ],
		"gridsnaponopen" : 0,
		"toolbarvisible" : 1,
		"boxanimatetime" : 200,
		"imprint" : 0,
		"enablehscroll" : 1,
		"enablevscroll" : 1,
		"devicewidth" : 0.0,
		"boxes" : [ 			{
				"box" : 				{
					"maxclass" : "newobj",
					"text" : "scale 0 127 0. 1. 0.96",
					"patching_rect" : [ 30.0, 90.0, 125.0, 20.0 ],
					"id" : "obj-129",
					"fontsize" : 12.0,
					"numinlets" : 6,
					"numoutlets" : 1,
					"fontname" : "Arial",
					"outlettype" : [ "" ]
				}

			}
, 			{
				"box" : 				{
					"maxclass" : "message",
					"text" : "$1 5",
					"patching_rect" : [ 30.0, 150.0, 34.0, 18.0 ],
					"id" : "obj-128",
					"fontsize" : 12.0,
					"numinlets" : 2,
					"numoutlets" : 1,
					"fontname" : "Arial",
					"outlettype" : [ "" ]
				}

			}
, 			{
				"box" : 				{
					"maxclass" : "newobj",
					"text" : "line~ 0.",
					"patching_rect" : [ 30.0, 180.0, 50.0, 20.0 ],
					"id" : "obj-126",
					"fontsize" : 12.0,
					"numinlets" : 2,
					"numoutlets" : 2,
					"fontname" : "Arial",
					"outlettype" : [ "signal", "bang" ]
				}

			}
, 			{
				"box" : 				{
					"maxclass" : "flonum",
					"patching_rect" : [ 30.0, 120.0, 50.0, 20.0 ],
					"id" : "obj-123",
					"fontsize" : 12.0,
					"numinlets" : 1,
					"numoutlets" : 2,
					"fontname" : "Arial",
					"outlettype" : [ "float", "bang" ]
				}

			}
, 			{
				"box" : 				{
					"maxclass" : "inlet",
					"patching_rect" : [ 30.0, 30.0, 25.0, 25.0 ],
					"id" : "obj-130",
					"numinlets" : 0,
					"numoutlets" : 1,
					"outlettype" : [ "" ],
					"comment" : ""
				}

			}
, 			{
				"box" : 				{
					"maxclass" : "outlet",
					"patching_rect" : [ 30.0, 260.0, 25.0, 25.0 ],
					"id" : "obj-131",
					"numinlets" : 1,
					"numoutlets" : 0,
					"comment" : ""
				}

			}
 ],
		"lines" : [ 			{
				"patchline" : 				{
					"source" : [ "obj-126", 0 ],
					"destination" : [ "obj-131", 0 ],
					"hidden" : 0,
					"midpoints" : [  ]
				}

			}
, 			{
				"patchline" : 				{
					"source" : [ "obj-130", 0 ],
					"destination" : [ "obj-129", 0 ],
					"hidden" : 0,
					"midpoints" : [  ]
				}

			}
, 			{
				"patchline" : 				{
					"source" : [ "obj-129", 0 ],
					"destination" : [ "obj-123", 0 ],
					"hidden" : 0,
					"midpoints" : [  ]
				}

			}
, 			{
				"patchline" : 				{
					"source" : [ "obj-128", 0 ],
					"destination" : [ "obj-126", 0 ],
					"hidden" : 0,
					"midpoints" : [  ]
				}

			}
, 			{
				"patchline" : 				{
					"source" : [ "obj-123", 0 ],
					"destination" : [ "obj-128", 0 ],
					"hidden" : 0,
					"midpoints" : [  ]
				}

			}
 ]
	}

}
