{
	"patcher" : 	{
		"fileversion" : 1,
		"appversion" : 		{
			"major" : 5,
			"minor" : 1,
			"revision" : 9
		}
,
		"rect" : [ 80.0, 69.0, 640.0, 480.0 ],
		"bglocked" : 0,
		"defrect" : [ 80.0, 69.0, 640.0, 480.0 ],
		"openrect" : [ 0.0, 0.0, 0.0, 0.0 ],
		"openinpresentation" : 0,
		"default_fontsize" : 12.0,
		"default_fontface" : 0,
		"default_fontname" : "Arial",
		"gridonopen" : 0,
		"gridsize" : [ 15.0, 15.0 ],
		"gridsnaponopen" : 0,
		"toolbarvisible" : 1,
		"boxanimatetime" : 200,
		"imprint" : 0,
		"enablehscroll" : 1,
		"enablevscroll" : 1,
		"devicewidth" : 0.0,
		"boxes" : [ 			{
				"box" : 				{
					"maxclass" : "newobj",
					"text" : "loadmess 63.5",
					"patching_rect" : [ 180.0, 60.0, 89.0, 20.0 ],
					"id" : "obj-3",
					"fontsize" : 12.0,
					"numinlets" : 1,
					"numoutlets" : 1,
					"fontname" : "Arial",
					"outlettype" : [ "" ]
				}

			}
, 			{
				"box" : 				{
					"maxclass" : "outlet",
					"patching_rect" : [ 255.0, 300.0, 25.0, 25.0 ],
					"id" : "obj-2",
					"numinlets" : 1,
					"numoutlets" : 0,
					"comment" : ""
				}

			}
, 			{
				"box" : 				{
					"maxclass" : "outlet",
					"patching_rect" : [ 105.0, 300.0, 25.0, 25.0 ],
					"id" : "obj-1",
					"numinlets" : 1,
					"numoutlets" : 0,
					"comment" : ""
				}

			}
, 			{
				"box" : 				{
					"maxclass" : "newobj",
					"text" : "f",
					"patching_rect" : [ 165.0, 90.0, 32.5, 20.0 ],
					"id" : "obj-163",
					"fontsize" : 12.0,
					"numinlets" : 2,
					"numoutlets" : 1,
					"fontname" : "Arial",
					"outlettype" : [ "float" ]
				}

			}
, 			{
				"box" : 				{
					"maxclass" : "newobj",
					"text" : "*~ 1.",
					"patching_rect" : [ 255.0, 255.0, 36.0, 20.0 ],
					"id" : "obj-162",
					"fontsize" : 12.0,
					"numinlets" : 2,
					"numoutlets" : 1,
					"fontname" : "Arial",
					"outlettype" : [ "signal" ]
				}

			}
, 			{
				"box" : 				{
					"maxclass" : "newobj",
					"text" : "*~ 1.",
					"patching_rect" : [ 105.0, 255.0, 36.0, 20.0 ],
					"id" : "obj-161",
					"fontsize" : 12.0,
					"numinlets" : 2,
					"numoutlets" : 1,
					"fontname" : "Arial",
					"outlettype" : [ "signal" ]
				}

			}
, 			{
				"box" : 				{
					"maxclass" : "newobj",
					"text" : "line~",
					"patching_rect" : [ 300.0, 210.0, 36.0, 20.0 ],
					"id" : "obj-159",
					"fontsize" : 12.0,
					"numinlets" : 2,
					"numoutlets" : 2,
					"fontname" : "Arial",
					"outlettype" : [ "signal", "bang" ]
				}

			}
, 			{
				"box" : 				{
					"maxclass" : "message",
					"text" : "$1 5",
					"patching_rect" : [ 300.0, 180.0, 34.0, 18.0 ],
					"id" : "obj-160",
					"fontsize" : 12.0,
					"numinlets" : 2,
					"numoutlets" : 1,
					"fontname" : "Arial",
					"outlettype" : [ "" ]
				}

			}
, 			{
				"box" : 				{
					"maxclass" : "newobj",
					"text" : "line~",
					"patching_rect" : [ 165.0, 210.0, 36.0, 20.0 ],
					"id" : "obj-158",
					"fontsize" : 12.0,
					"numinlets" : 2,
					"numoutlets" : 2,
					"fontname" : "Arial",
					"outlettype" : [ "signal", "bang" ]
				}

			}
, 			{
				"box" : 				{
					"maxclass" : "message",
					"text" : "$1 5",
					"patching_rect" : [ 165.0, 180.0, 34.0, 18.0 ],
					"id" : "obj-157",
					"fontsize" : 12.0,
					"numinlets" : 2,
					"numoutlets" : 1,
					"fontname" : "Arial",
					"outlettype" : [ "" ]
				}

			}
, 			{
				"box" : 				{
					"maxclass" : "newobj",
					"text" : "!- 1.",
					"patching_rect" : [ 165.0, 150.0, 32.5, 20.0 ],
					"id" : "obj-156",
					"fontsize" : 12.0,
					"numinlets" : 2,
					"numoutlets" : 1,
					"fontname" : "Arial",
					"outlettype" : [ "float" ]
				}

			}
, 			{
				"box" : 				{
					"maxclass" : "newobj",
					"text" : "zmap 63.5 127 1. 0.",
					"patching_rect" : [ 165.0, 120.0, 117.0, 20.0 ],
					"id" : "obj-155",
					"fontsize" : 12.0,
					"numinlets" : 5,
					"numoutlets" : 1,
					"fontname" : "Arial",
					"outlettype" : [ "" ]
				}

			}
, 			{
				"box" : 				{
					"maxclass" : "flonum",
					"patching_rect" : [ 300.0, 150.0, 50.0, 20.0 ],
					"id" : "obj-153",
					"fontsize" : 12.0,
					"numinlets" : 1,
					"numoutlets" : 2,
					"fontname" : "Arial",
					"outlettype" : [ "float", "bang" ]
				}

			}
, 			{
				"box" : 				{
					"maxclass" : "newobj",
					"text" : "zmap 0 63.5 1. 0.",
					"patching_rect" : [ 300.0, 120.0, 103.0, 20.0 ],
					"id" : "obj-151",
					"fontsize" : 12.0,
					"numinlets" : 5,
					"numoutlets" : 1,
					"fontname" : "Arial",
					"outlettype" : [ "" ]
				}

			}
, 			{
				"box" : 				{
					"maxclass" : "inlet",
					"patching_rect" : [ 105.0, 15.0, 25.0, 25.0 ],
					"id" : "obj-164",
					"numinlets" : 0,
					"numoutlets" : 1,
					"outlettype" : [ "" ],
					"comment" : ""
				}

			}
, 			{
				"box" : 				{
					"maxclass" : "inlet",
					"patching_rect" : [ 165.0, 15.0, 25.0, 25.0 ],
					"id" : "obj-165",
					"numinlets" : 0,
					"numoutlets" : 1,
					"outlettype" : [ "" ],
					"comment" : ""
				}

			}
 ],
		"lines" : [ 			{
				"patchline" : 				{
					"source" : [ "obj-3", 0 ],
					"destination" : [ "obj-163", 0 ],
					"hidden" : 0,
					"midpoints" : [  ]
				}

			}
, 			{
				"patchline" : 				{
					"source" : [ "obj-163", 0 ],
					"destination" : [ "obj-151", 0 ],
					"hidden" : 0,
					"midpoints" : [  ]
				}

			}
, 			{
				"patchline" : 				{
					"source" : [ "obj-163", 0 ],
					"destination" : [ "obj-155", 0 ],
					"hidden" : 0,
					"midpoints" : [  ]
				}

			}
, 			{
				"patchline" : 				{
					"source" : [ "obj-165", 0 ],
					"destination" : [ "obj-163", 0 ],
					"hidden" : 0,
					"midpoints" : [  ]
				}

			}
, 			{
				"patchline" : 				{
					"source" : [ "obj-164", 0 ],
					"destination" : [ "obj-162", 0 ],
					"hidden" : 0,
					"midpoints" : [ 114.5, 240.0, 264.5, 240.0 ]
				}

			}
, 			{
				"patchline" : 				{
					"source" : [ "obj-164", 0 ],
					"destination" : [ "obj-161", 0 ],
					"hidden" : 0,
					"midpoints" : [  ]
				}

			}
, 			{
				"patchline" : 				{
					"source" : [ "obj-159", 0 ],
					"destination" : [ "obj-162", 1 ],
					"hidden" : 0,
					"midpoints" : [  ]
				}

			}
, 			{
				"patchline" : 				{
					"source" : [ "obj-158", 0 ],
					"destination" : [ "obj-161", 1 ],
					"hidden" : 0,
					"midpoints" : [  ]
				}

			}
, 			{
				"patchline" : 				{
					"source" : [ "obj-153", 0 ],
					"destination" : [ "obj-160", 0 ],
					"hidden" : 0,
					"midpoints" : [  ]
				}

			}
, 			{
				"patchline" : 				{
					"source" : [ "obj-160", 0 ],
					"destination" : [ "obj-159", 0 ],
					"hidden" : 0,
					"midpoints" : [  ]
				}

			}
, 			{
				"patchline" : 				{
					"source" : [ "obj-156", 0 ],
					"destination" : [ "obj-157", 0 ],
					"hidden" : 0,
					"midpoints" : [  ]
				}

			}
, 			{
				"patchline" : 				{
					"source" : [ "obj-157", 0 ],
					"destination" : [ "obj-158", 0 ],
					"hidden" : 0,
					"midpoints" : [  ]
				}

			}
, 			{
				"patchline" : 				{
					"source" : [ "obj-155", 0 ],
					"destination" : [ "obj-156", 0 ],
					"hidden" : 0,
					"midpoints" : [  ]
				}

			}
, 			{
				"patchline" : 				{
					"source" : [ "obj-151", 0 ],
					"destination" : [ "obj-153", 0 ],
					"hidden" : 0,
					"midpoints" : [  ]
				}

			}
, 			{
				"patchline" : 				{
					"source" : [ "obj-161", 0 ],
					"destination" : [ "obj-1", 0 ],
					"hidden" : 0,
					"midpoints" : [  ]
				}

			}
, 			{
				"patchline" : 				{
					"source" : [ "obj-162", 0 ],
					"destination" : [ "obj-2", 0 ],
					"hidden" : 0,
					"midpoints" : [  ]
				}

			}
 ]
	}

}
